# xmcd
# 
# Track frame offsets:
#     183
#     16250
#     40358
#     55433
#     74825
#     84173
#     96725
# 
# Disc length: 2530
# 
# Revision: 5
# Processed by: cddbd v1.5.2PL0 Copyright (c) Steve Scherf et al.
# Submitted via: fre:ac v1.0.31
# 
DISCID=6109e007
DTITLE=Vangelis - Chariots Of Fire
DYEAR=1981
DGENRE=New Age
TTITLE0=Titles
TTITLE1=Five Circles
TTITLE2=Abraham's Theme
TTITLE3=Eric's Theme
TTITLE4=100 Metres
TTITLE5=Jerusalem
TTITLE6=Chariots Of Fire
EXTD=
EXTT0=
EXTT1=
EXTT2=
EXTT3=
EXTT4=
EXTT5=Parry - Rabinowitz - Ambrosian Singers - McCarthy
EXTT6=
PLAYORDER=
